<svg width="42" height="42" viewBox="0 0 42 42" fill="none" xmlns="http://www.w3.org/2000/svg">
<path d="M32.8849 19.2588H13.3374L21.8774 10.7188C22.5599 10.0363 22.5599 8.91627 21.8774 8.23377C21.5504 7.90608 21.1065 7.72192 20.6436 7.72192C20.1807 7.72192 19.7368 7.90608 19.4099 8.23377L7.87735 19.7663C7.19485 20.4488 7.19485 21.5513 7.87735 22.2338L19.4099 33.7663C20.0924 34.4488 21.1949 34.4488 21.8774 33.7663C22.5599 33.0838 22.5599 31.9813 21.8774 31.2988L13.3374 22.7588H32.8849C33.8474 22.7588 34.6349 21.9713 34.6349 21.0088C34.6349 20.0463 33.8474 19.2588 32.8849 19.2588Z" fill="#0BCBFF"/>
</svg>
